<svg style="width:100%;height:100%" viewBox="0 0 313 277" fill="none" xmlns="http://www.w3.org/2000/svg">
<g id="Denah Perumahan">
<path id="Tanah" d="M238.5 207.5L220.5 202L33 138L28.5 32.5L200 6.5V64.5L258.5 68L238.5 207.5Z" fill="#0AC46E"/>
<g id="Jalan Perumahan">
<path id="Jalan Perumahan_2" d="M202.093 6L100 22L97 41.895H106.138L95.5327 112.19L48.0603 95.2391L42 109.697L241.485 177L243 161.545L184.922 142.102L202.093 6Z" fill="#989898"/>
<path id="Blok C" d="M132.686 135.404L133.721 132.003L134.832 132.341C135.201 132.453 135.455 132.614 135.594 132.823C135.735 133.033 135.759 133.287 135.668 133.586C135.62 133.745 135.532 133.872 135.404 133.967C135.277 134.061 135.125 134.118 134.949 134.138C135.117 134.245 135.232 134.387 135.294 134.564C135.358 134.74 135.36 134.928 135.299 135.127C135.206 135.432 135.034 135.642 134.783 135.756C134.533 135.87 134.226 135.872 133.865 135.762L132.686 135.404ZM133.618 133.949L133.246 135.173L133.986 135.399C134.195 135.462 134.375 135.458 134.528 135.387C134.683 135.315 134.789 135.184 134.847 134.994C134.971 134.585 134.811 134.312 134.366 134.177L133.618 133.949ZM133.728 133.59L134.405 133.796C134.601 133.856 134.773 133.854 134.919 133.792C135.067 133.729 135.167 133.614 135.218 133.446C135.275 133.259 135.262 133.107 135.178 132.99C135.095 132.871 134.943 132.778 134.72 132.71L134.057 132.508L133.728 133.59ZM136.068 136.433L135.636 136.301L136.727 132.714L137.159 132.845L136.068 136.433ZM137.039 135.322C137.114 135.074 137.23 134.866 137.387 134.698C137.545 134.53 137.727 134.419 137.932 134.364C138.139 134.31 138.354 134.316 138.577 134.384C138.921 134.489 139.163 134.692 139.302 134.995C139.443 135.298 139.453 135.648 139.333 136.043L139.324 136.073C139.249 136.319 139.134 136.526 138.979 136.693C138.827 136.86 138.646 136.97 138.437 137.026C138.229 137.082 138.012 137.075 137.784 137.006C137.442 136.902 137.2 136.698 137.059 136.395C136.92 136.092 136.91 135.745 137.029 135.352L137.039 135.322ZM137.457 135.506C137.372 135.786 137.368 136.031 137.446 136.24C137.525 136.449 137.674 136.587 137.892 136.653C138.111 136.72 138.312 136.688 138.493 136.556C138.675 136.422 138.813 136.2 138.907 135.891C138.991 135.613 138.994 135.369 138.913 135.158C138.835 134.945 138.687 134.805 138.469 134.739C138.256 134.674 138.058 134.707 137.875 134.837C137.693 134.966 137.554 135.19 137.457 135.506ZM140.551 136.518L140.194 136.719L139.924 137.606L139.492 137.475L140.584 133.887L141.016 134.019L140.355 136.188L140.671 135.981L141.711 135.389L142.237 135.549L140.932 136.305L141.582 138.111L141.075 137.957L140.551 136.518ZM145.998 138.275C145.847 138.622 145.629 138.86 145.345 138.988C145.063 139.115 144.737 139.122 144.366 139.009C143.964 138.887 143.686 138.645 143.531 138.283C143.377 137.921 143.374 137.499 143.52 137.016L143.62 136.689C143.716 136.373 143.857 136.112 144.042 135.907C144.229 135.701 144.445 135.566 144.691 135.502C144.937 135.436 145.197 135.444 145.469 135.527C145.83 135.637 146.089 135.826 146.246 136.095C146.402 136.362 146.445 136.679 146.372 137.047L145.921 136.91C145.965 136.627 145.939 136.405 145.846 136.244C145.753 136.083 145.59 135.967 145.357 135.896C145.07 135.809 144.813 135.846 144.585 136.008C144.359 136.171 144.186 136.447 144.067 136.838L143.967 137.167C143.855 137.536 143.842 137.853 143.93 138.118C144.018 138.383 144.201 138.558 144.478 138.642C144.727 138.718 144.935 138.72 145.101 138.648C145.27 138.575 145.418 138.405 145.547 138.138L145.998 138.275Z" fill="white"/>
<path id="Blok A" d="M187.009 104.643L183.489 104.146L183.651 102.995C183.705 102.614 183.825 102.338 184.01 102.168C184.195 101.997 184.442 101.934 184.752 101.977C184.916 102 185.055 102.068 185.169 102.179C185.282 102.29 185.361 102.432 185.408 102.602C185.488 102.42 185.611 102.284 185.776 102.196C185.94 102.106 186.125 102.075 186.332 102.104C186.647 102.149 186.881 102.286 187.033 102.516C187.184 102.746 187.234 103.048 187.181 103.422L187.009 104.643ZM185.428 103.947L186.695 104.125L186.803 103.359C186.833 103.143 186.802 102.965 186.708 102.825C186.613 102.684 186.467 102.599 186.27 102.571C185.847 102.512 185.602 102.712 185.537 103.173L185.428 103.947ZM185.056 103.894L185.155 103.193C185.183 102.99 185.155 102.821 185.071 102.686C184.987 102.549 184.857 102.468 184.683 102.443C184.49 102.416 184.342 102.453 184.239 102.553C184.134 102.654 184.066 102.819 184.033 103.049L183.936 103.736L185.056 103.894ZM187.503 101.143L187.44 101.59L183.726 101.066L183.79 100.618L187.503 101.143ZM186.255 100.355C185.999 100.319 185.776 100.236 185.585 100.108C185.395 99.9772 185.257 99.8147 185.171 99.6201C185.085 99.4239 185.058 99.2105 185.091 98.9801C185.141 98.6239 185.305 98.3536 185.583 98.1693C185.86 97.9833 186.204 97.9192 186.613 97.977L186.645 97.9814C186.899 98.0174 187.121 98.0989 187.311 98.2258C187.498 98.351 187.636 98.5126 187.723 98.7106C187.81 98.907 187.837 99.1229 187.804 99.3582C187.754 99.7128 187.59 99.983 187.312 100.169C187.035 100.353 186.693 100.417 186.287 100.36L186.255 100.355ZM186.372 99.913C186.662 99.9539 186.905 99.9199 187.099 99.811C187.294 99.7004 187.407 99.5323 187.439 99.3067C187.471 99.0794 187.408 98.8864 187.25 98.7276C187.09 98.5686 186.849 98.4664 186.528 98.4212C186.242 98.3807 186 98.4164 185.803 98.5283C185.605 98.6385 185.49 98.8063 185.458 99.032C185.427 99.2528 185.49 99.4432 185.647 99.6034C185.803 99.7636 186.045 99.8668 186.372 99.913ZM186.895 96.7001L187.148 97.0218L188.066 97.1515L188.003 97.5987L184.29 97.0745L184.353 96.6273L186.599 96.9443L186.345 96.6644L185.599 95.7282L185.676 95.1843L186.625 96.3563L188.309 95.4351L188.235 95.9597L186.895 96.7001ZM187.896 91.7204L187.688 93.195L188.56 93.6559L188.492 94.1346L185.162 92.2935L185.22 91.8874L188.929 91.0378L188.862 91.5141L187.896 91.7204ZM187.326 93.0009L187.495 91.8043L185.764 92.1713L187.326 93.0009Z" fill="white"/>
<path id="Blok B" d="M180.01 102.627L176.488 102.149L176.644 100.998C176.696 100.615 176.814 100.339 176.998 100.169C177.182 99.9965 177.429 99.9315 177.739 99.9736C177.903 99.9959 178.043 100.062 178.158 100.173C178.271 100.284 178.351 100.425 178.399 100.595C178.478 100.412 178.6 100.276 178.765 100.187C178.928 100.096 179.113 100.064 179.319 100.092C179.636 100.135 179.87 100.271 180.023 100.5C180.176 100.73 180.227 101.032 180.176 101.406L180.01 102.627ZM178.426 101.939L179.693 102.111L179.797 101.344C179.827 101.128 179.794 100.951 179.7 100.811C179.604 100.67 179.458 100.586 179.261 100.56C178.837 100.502 178.593 100.704 178.531 101.165L178.426 101.939ZM178.053 101.889L178.148 101.187C178.176 100.984 178.147 100.815 178.062 100.68C177.977 100.544 177.847 100.464 177.673 100.44C177.48 100.414 177.332 100.451 177.229 100.552C177.125 100.653 177.058 100.819 177.026 101.05L176.933 101.737L178.053 101.889ZM180.486 99.1244L180.425 99.5719L176.709 99.0675L176.77 98.6199L180.486 99.1244ZM179.234 98.3434C178.978 98.3086 178.754 98.2273 178.563 98.0995C178.371 97.9701 178.232 97.8083 178.146 97.6142C178.059 97.4185 178.031 97.2053 178.062 96.9747C178.111 96.6182 178.273 96.3471 178.55 96.1612C178.826 95.9738 179.17 95.9079 179.579 95.9635L179.611 95.9677C179.866 96.0023 180.088 96.0826 180.278 96.2086C180.466 96.3327 180.605 96.4936 180.693 96.6911C180.781 96.8871 180.809 97.1028 180.777 97.3383C180.729 97.6931 180.567 97.9643 180.29 98.1517C180.013 98.3376 179.672 98.4029 179.266 98.3477L179.234 98.3434ZM179.348 97.9007C179.639 97.9401 179.881 97.9048 180.075 97.7948C180.269 97.6832 180.381 97.5145 180.412 97.2887C180.443 97.0613 180.379 96.8686 180.219 96.7107C180.059 96.5525 179.818 96.4516 179.497 96.4081C179.21 96.3691 178.968 96.4061 178.772 96.5191C178.575 96.6303 178.461 96.7988 178.43 97.0246C178.4 97.2455 178.464 97.4357 178.621 97.595C178.779 97.7544 179.021 97.8562 179.348 97.9007ZM179.854 94.6851L180.109 95.0054L181.028 95.1302L180.967 95.5778L177.251 95.0734L177.312 94.6258L179.559 94.9309L179.304 94.6523L178.553 93.7201L178.627 93.1758L179.583 94.3427L181.261 93.4126L181.19 93.9376L179.854 94.6851ZM181.484 91.7699L177.962 91.2918L178.118 90.1402C178.17 89.758 178.288 89.4816 178.472 89.3112C178.656 89.1391 178.903 89.0741 179.213 89.1161C179.377 89.1384 179.517 89.205 179.632 89.3159C179.745 89.4265 179.825 89.5671 179.873 89.7378C179.952 89.5548 180.074 89.4186 180.238 89.3292C180.402 89.2381 180.587 89.2065 180.793 89.2346C181.109 89.2775 181.344 89.4136 181.497 89.643C181.65 89.8723 181.701 90.1741 181.65 90.5482L181.484 91.7699ZM179.9 91.0818L181.167 91.2539L181.271 90.487C181.301 90.2709 181.268 90.0932 181.174 89.9539C181.078 89.8128 180.932 89.7288 180.735 89.7021C180.311 89.6446 180.067 89.8464 180.005 90.3077L179.9 91.0818ZM179.527 91.0312L179.622 90.3297C179.65 90.1264 179.621 89.9575 179.536 89.8227C179.451 89.6863 179.321 89.6063 179.147 89.5827C178.954 89.5564 178.806 89.5938 178.703 89.6949C178.599 89.7957 178.531 89.9615 178.5 90.1921L178.407 90.8792L179.527 91.0312Z" fill="white"/>
<path id="Blok B_2" d="M110.01 79.6274L106.488 79.1492L106.644 77.9977C106.696 77.6154 106.814 77.3391 106.998 77.1686C107.182 76.9965 107.429 76.9315 107.739 76.9736C107.903 76.9959 108.043 77.0625 108.158 77.1733C108.271 77.2839 108.351 77.4246 108.399 77.5953C108.478 77.4122 108.6 77.276 108.765 77.1867C108.928 77.0955 109.113 77.064 109.319 77.092C109.636 77.1349 109.87 77.2711 110.023 77.5004C110.176 77.7298 110.227 78.0315 110.176 78.4057L110.01 79.6274ZM108.426 78.9393L109.693 79.1113L109.797 78.3444C109.827 78.1283 109.794 77.9506 109.7 77.8113C109.604 77.6702 109.458 77.5863 109.261 77.5596C108.837 77.502 108.593 77.7038 108.531 78.1651L108.426 78.9393ZM108.053 78.8887L108.148 78.1871C108.176 77.9839 108.147 77.8149 108.062 77.6802C107.977 77.5438 107.847 77.4638 107.673 77.4401C107.48 77.4139 107.332 77.4513 107.229 77.5523C107.125 77.6532 107.058 77.8189 107.026 78.0496L106.933 78.7366L108.053 78.8887ZM110.486 76.1244L110.425 76.5719L106.709 76.0675L106.77 75.6199L110.486 76.1244ZM109.234 75.3434C108.978 75.3086 108.754 75.2273 108.563 75.0995C108.371 74.9701 108.232 74.8083 108.146 74.6142C108.059 74.4185 108.031 74.2053 108.062 73.9747C108.111 73.6182 108.273 73.3471 108.55 73.1612C108.826 72.9738 109.17 72.9079 109.579 72.9635L109.611 72.9677C109.866 73.0023 110.088 73.0826 110.278 73.2086C110.466 73.3327 110.605 73.4936 110.693 73.6911C110.781 73.8871 110.809 74.1028 110.777 74.3383C110.729 74.6931 110.567 74.9643 110.29 75.1517C110.013 75.3376 109.672 75.4029 109.266 75.3477L109.234 75.3434ZM109.348 74.9007C109.639 74.9401 109.881 74.9048 110.075 74.7948C110.269 74.6832 110.381 74.5145 110.412 74.2887C110.443 74.0613 110.379 73.8686 110.219 73.7107C110.059 73.5525 109.818 73.4516 109.497 73.4081C109.21 73.3691 108.968 73.4061 108.772 73.5191C108.575 73.6303 108.461 73.7988 108.43 74.0246C108.4 74.2455 108.464 74.4357 108.621 74.595C108.779 74.7544 109.021 74.8562 109.348 74.9007ZM109.854 71.6851L110.109 72.0054L111.028 72.1302L110.967 72.5778L107.251 72.0734L107.312 71.6258L109.559 71.9309L109.304 71.6523L108.553 70.7201L108.627 70.1758L109.583 71.3427L111.261 70.4126L111.19 70.9376L109.854 71.6851ZM111.484 68.7699L107.962 68.2918L108.118 67.1402C108.17 66.758 108.288 66.4816 108.472 66.3112C108.656 66.1391 108.903 66.0741 109.213 66.1161C109.377 66.1384 109.517 66.205 109.632 66.3159C109.745 66.4265 109.825 66.5671 109.873 66.7378C109.952 66.5548 110.074 66.4186 110.238 66.3292C110.402 66.2381 110.587 66.2065 110.793 66.2346C111.109 66.2775 111.344 66.4136 111.497 66.643C111.65 66.8723 111.701 67.1741 111.65 67.5482L111.484 68.7699ZM109.9 68.0818L111.167 68.2539L111.271 67.487C111.301 67.2709 111.268 67.0932 111.174 66.9539C111.078 66.8128 110.932 66.7288 110.735 66.7021C110.311 66.6446 110.067 66.8464 110.005 67.3077L109.9 68.0818ZM109.527 68.0312L109.622 67.3297C109.65 67.1264 109.621 66.9575 109.536 66.8227C109.451 66.6863 109.321 66.6063 109.147 66.5827C108.954 66.5564 108.806 66.5938 108.703 66.6949C108.599 66.7957 108.531 66.9615 108.5 67.1921L108.407 67.8792L109.527 68.0312Z" fill="white"/>
</g>
<path id="Tanah Blok B" d="M124 18.5L110 117L169.5 138L186.5 8.5L124 18.5Z" fill="#0AC46E"/>
<path id="Tidak tau apa ini hehehe" d="M92 22L0 16.5V71.5H30L91.5 78L92 22Z" fill="#C7C8CA"/>
<g id="Jalan Raya">
<path id="Vector 4" d="M227 271L264.5 3L288.5 6.5L251 274L227 271Z" fill="#767676"/>
<path id="Vector 7" d="M209 268.5L268 276.5" stroke="black" stroke-width="0.5"/>
<path id="Vector 8" d="M248.5 1L308 9" stroke="black" stroke-width="0.5"/>
<path id="Vector 12" d="M275.5 103L312.5 121" stroke="black" stroke-width="0.5"/>
<path id="Jalan Raya Beton" d="M251.72 166.074L251.824 165.327L255.813 165.883C256.352 165.958 256.751 166.179 257.01 166.547C257.269 166.912 257.362 167.364 257.286 167.903C257.208 168.462 257.005 168.878 256.675 169.151C256.345 169.423 255.922 169.523 255.406 169.451L255.51 168.708C255.832 168.753 256.096 168.7 256.301 168.55C256.506 168.397 256.632 168.153 256.679 167.818C256.722 167.511 256.66 167.25 256.492 167.035C256.326 166.817 256.068 166.682 255.72 166.631L251.72 166.074ZM257.978 162.375C257.89 162.405 257.738 162.418 257.523 162.414C257.822 162.795 257.94 163.216 257.875 163.678C257.818 164.091 257.654 164.414 257.385 164.647C257.114 164.877 256.799 164.967 256.44 164.917C256.005 164.857 255.69 164.645 255.496 164.281C255.3 163.914 255.244 163.431 255.327 162.83L255.424 162.133L255.096 162.088C254.845 162.053 254.636 162.1 254.468 162.229C254.298 162.358 254.192 162.568 254.152 162.859C254.116 163.115 254.151 163.338 254.256 163.528C254.361 163.719 254.505 163.827 254.688 163.853L254.587 164.572C254.379 164.543 254.188 164.442 254.015 164.268C253.84 164.091 253.713 163.868 253.635 163.6C253.557 163.328 253.539 163.041 253.581 162.736C253.649 162.254 253.822 161.893 254.103 161.653C254.381 161.413 254.732 161.318 255.157 161.366L257.083 161.635C257.468 161.689 257.78 161.682 258.021 161.616L258.083 161.624L257.978 162.375ZM257.267 163.487C257.298 163.262 257.27 163.041 257.182 162.824C257.094 162.607 256.963 162.44 256.79 162.324L255.931 162.204L255.853 162.765C255.731 163.642 255.926 164.116 256.44 164.188C256.664 164.219 256.85 164.169 256.997 164.037C257.144 163.905 257.234 163.721 257.267 163.487ZM258.327 159.872L258.227 160.588L252.285 159.759L252.384 159.044L258.327 159.872ZM258.847 156.138C258.759 156.168 258.607 156.181 258.392 156.177C258.691 156.558 258.809 156.98 258.744 157.441C258.687 157.854 258.524 158.177 258.254 158.41C257.983 158.641 257.668 158.731 257.31 158.681C256.874 158.62 256.559 158.408 256.365 158.044C256.169 157.678 256.113 157.194 256.197 156.593L256.294 155.897L255.965 155.851C255.715 155.816 255.506 155.863 255.338 155.992C255.167 156.121 255.062 156.331 255.021 156.623C254.985 156.878 255.02 157.101 255.125 157.292C255.23 157.483 255.374 157.591 255.557 157.616L255.457 158.336C255.248 158.307 255.057 158.205 254.884 158.031C254.709 157.854 254.582 157.632 254.504 157.363C254.426 157.092 254.408 156.804 254.451 156.5C254.518 156.017 254.692 155.656 254.972 155.417C255.25 155.177 255.601 155.081 256.026 155.13L257.953 155.398C258.337 155.452 258.649 155.446 258.89 155.379L258.952 155.388L258.847 156.138ZM258.136 157.25C258.167 157.026 258.139 156.805 258.051 156.587C257.963 156.37 257.832 156.203 257.659 156.087L256.8 155.967L256.722 156.528C256.6 157.405 256.796 157.88 257.309 157.951C257.533 157.982 257.719 157.932 257.866 157.8C258.013 157.668 258.103 157.485 258.136 157.25ZM254.996 153.152L255.525 153.202C255.168 152.827 255.025 152.381 255.097 151.865C255.22 150.98 255.781 150.604 256.78 150.735L259.547 151.12L259.447 151.836L256.677 151.45C256.375 151.411 256.142 151.449 255.978 151.566C255.815 151.68 255.714 151.88 255.674 152.166C255.641 152.398 255.675 152.611 255.774 152.803C255.874 152.996 256.017 153.155 256.205 153.281L259.187 153.697L259.088 154.413L254.902 153.829L254.996 153.152ZM257.996 145.58L257.811 146.903L260.09 147.221L259.986 147.967L254.353 147.182L254.613 145.317C254.701 144.683 254.914 144.216 255.25 143.915C255.587 143.613 256.031 143.5 256.583 143.577C256.934 143.626 257.226 143.764 257.46 143.991C257.694 144.215 257.852 144.506 257.934 144.861L260.51 143.871L260.556 143.878L260.445 144.675L257.996 145.58ZM257.204 146.818L257.363 145.677C257.414 145.308 257.36 145.002 257.199 144.759C257.039 144.513 256.799 144.368 256.479 144.323C256.131 144.275 255.849 144.342 255.634 144.525C255.42 144.706 255.284 144.992 255.227 145.383L255.068 146.521L257.204 146.818ZM261.012 140.609C260.923 140.639 260.772 140.652 260.557 140.648C260.856 141.029 260.973 141.45 260.909 141.912C260.851 142.324 260.688 142.647 260.419 142.881C260.148 143.111 259.833 143.201 259.474 143.151C259.038 143.091 258.723 142.878 258.529 142.515C258.333 142.148 258.277 141.665 258.361 141.064L258.458 140.367L258.129 140.321C257.879 140.287 257.67 140.334 257.502 140.463C257.332 140.591 257.226 140.802 257.185 141.093C257.15 141.348 257.185 141.571 257.289 141.762C257.394 141.953 257.538 142.061 257.721 142.087L257.621 142.806C257.412 142.777 257.221 142.676 257.048 142.502C256.873 142.325 256.746 142.102 256.668 141.833C256.59 141.562 256.573 141.274 256.615 140.97C256.682 140.488 256.856 140.127 257.137 139.887C257.415 139.647 257.766 139.552 258.19 139.6L260.117 139.869C260.501 139.922 260.814 139.916 261.054 139.85L261.116 139.858L261.012 140.609ZM260.301 141.72C260.332 141.496 260.303 141.275 260.215 141.058C260.127 140.84 259.997 140.674 259.824 140.558L258.965 140.438L258.887 140.999C258.764 141.876 258.96 142.35 259.473 142.422C259.698 142.453 259.883 142.402 260.031 142.271C260.178 142.139 260.268 141.955 260.301 141.72ZM260.386 137.429L257.384 136.017L257.491 135.251L262.089 137.608C262.749 137.965 263.039 138.428 262.96 138.995L262.93 139.129L262.842 139.389L262.262 139.308L262.304 139.117C262.338 138.874 262.315 138.679 262.236 138.531C262.157 138.381 261.993 138.244 261.745 138.12L261.342 137.902L256.994 138.818L257.103 138.037L260.386 137.429ZM262.118 132.67C262.03 132.7 261.878 132.713 261.663 132.709C261.962 133.09 262.08 133.511 262.015 133.973C261.958 134.386 261.795 134.709 261.525 134.942C261.254 135.172 260.939 135.262 260.581 135.212C260.145 135.152 259.83 134.94 259.636 134.576C259.44 134.209 259.384 133.726 259.467 133.125L259.564 132.428L259.236 132.383C258.985 132.348 258.776 132.395 258.609 132.524C258.438 132.653 258.333 132.863 258.292 133.154C258.256 133.409 258.291 133.633 258.396 133.823C258.501 134.014 258.645 134.122 258.828 134.148L258.728 134.867C258.519 134.838 258.328 134.737 258.155 134.563C257.98 134.386 257.853 134.163 257.775 133.895C257.697 133.623 257.679 133.336 257.721 133.031C257.789 132.549 257.963 132.188 258.243 131.948C258.521 131.708 258.872 131.613 259.297 131.661L261.223 131.93C261.608 131.983 261.92 131.977 262.161 131.911L262.223 131.919L262.118 132.67ZM261.407 133.782C261.438 133.557 261.41 133.336 261.322 133.119C261.234 132.902 261.103 132.735 260.93 132.619L260.071 132.499L259.993 133.06C259.871 133.937 260.066 134.411 260.58 134.483C260.804 134.514 260.99 134.464 261.137 134.332C261.284 134.2 261.374 134.016 261.407 133.782ZM262.648 128.867L257.015 128.082L257.272 126.24C257.357 125.629 257.547 125.187 257.843 124.916C258.139 124.641 258.534 124.539 259.03 124.608C259.293 124.644 259.516 124.752 259.699 124.93C259.879 125.107 260.007 125.333 260.081 125.606C260.209 125.314 260.405 125.097 260.669 124.955C260.931 124.81 261.227 124.76 261.558 124.806C262.063 124.877 262.437 125.096 262.681 125.464C262.924 125.832 263.004 126.315 262.92 126.913L262.648 128.867ZM260.117 127.757L262.144 128.039L262.315 126.813C262.363 126.467 262.312 126.183 262.162 125.959C262.01 125.733 261.776 125.598 261.461 125.554C260.783 125.459 260.392 125.781 260.29 126.519L260.117 127.757ZM259.521 127.674L259.678 126.552C259.723 126.227 259.678 125.956 259.542 125.74C259.407 125.521 259.2 125.393 258.922 125.354C258.612 125.311 258.375 125.37 258.211 125.531C258.044 125.692 257.934 125.956 257.883 126.325L257.73 127.424L259.521 127.674ZM263.64 122.316C263.561 122.883 263.311 123.319 262.89 123.623C262.466 123.927 261.942 124.036 261.318 123.949L261.187 123.93C260.771 123.872 260.412 123.742 260.109 123.54C259.804 123.334 259.58 123.077 259.436 122.767C259.29 122.455 259.24 122.133 259.287 121.8C259.363 121.256 259.601 120.858 260.001 120.606C260.402 120.354 260.936 120.275 261.604 120.368L261.902 120.409L261.507 123.245C261.921 123.292 262.272 123.219 262.559 123.025C262.844 122.828 263.012 122.552 263.061 122.196C263.096 121.943 263.075 121.722 262.996 121.532C262.917 121.342 262.802 121.17 262.65 121.015L263.051 120.625C263.542 121.051 263.738 121.614 263.64 122.316ZM259.875 121.882C259.835 122.171 259.907 122.428 260.091 122.653C260.272 122.879 260.549 123.041 260.922 123.14L261.214 121.043L261.16 121.036C260.794 121.006 260.499 121.064 260.276 121.212C260.05 121.359 259.917 121.583 259.875 121.882ZM258.842 118.145L259.855 118.286L259.964 117.505L260.518 117.582L260.409 118.363L263.005 118.725C263.172 118.749 263.304 118.731 263.398 118.674C263.491 118.615 263.548 118.503 263.572 118.335C263.583 118.252 263.584 118.137 263.573 117.988L264.153 118.069C264.178 118.264 264.179 118.451 264.154 118.629C264.109 118.949 263.979 119.176 263.763 119.312C263.547 119.448 263.261 119.49 262.905 119.441L260.309 119.079L260.203 119.841L259.649 119.764L259.756 119.002L258.742 118.861L258.842 118.145ZM262.098 117.218C261.688 117.161 261.331 117.03 261.025 116.824C260.72 116.616 260.499 116.357 260.361 116.046C260.223 115.732 260.18 115.391 260.231 115.022C260.311 114.452 260.572 114.019 261.016 113.723C261.46 113.425 262.009 113.321 262.664 113.412L262.715 113.419C263.122 113.476 263.478 113.606 263.781 113.809C264.081 114.008 264.302 114.266 264.442 114.583C264.582 114.897 264.626 115.242 264.573 115.619C264.494 116.186 264.233 116.619 263.789 116.918C263.345 117.213 262.799 117.316 262.149 117.225L262.098 117.218ZM262.284 116.511C262.748 116.575 263.136 116.52 263.447 116.345C263.758 116.168 263.939 115.899 263.989 115.538C264.04 115.174 263.938 114.865 263.684 114.612C263.428 114.358 263.043 114.195 262.53 114.123C262.071 114.059 261.684 114.117 261.37 114.297C261.053 114.474 260.87 114.743 260.82 115.104C260.77 115.457 260.871 115.762 261.122 116.017C261.373 116.273 261.76 116.438 262.284 116.511ZM260.795 111.547L261.324 111.597C260.966 111.221 260.823 110.775 260.895 110.259C261.019 109.374 261.58 108.998 262.579 109.129L265.345 109.515L265.246 110.231L262.475 109.844C262.173 109.805 261.941 109.843 261.777 109.96C261.614 110.074 261.512 110.274 261.472 110.56C261.44 110.793 261.474 111.005 261.573 111.198C261.672 111.39 261.816 111.55 262.003 111.676L264.986 112.091L264.886 112.807L260.7 112.224L260.795 111.547Z" fill="white"/>
<path id="Vector 11" d="M259.5 215.5L297.5 229L312.5 213.5" stroke="black" stroke-width="0.5"/>
</g>
<g id="Gudang">
<rect id="Rectangle 150" x="273.73" y="206.776" width="19.5" height="13.1065" transform="rotate(6.3687 273.73 206.776)" stroke="black" stroke-width="0.5"/>
<rect id="Rectangle 151" x="275.709" y="190.776" width="13.1289" height="12.911" transform="rotate(6.3687 275.709 190.776)" stroke="black" stroke-width="0.5"/>
<path id="Gudang_2" d="M278.544 215.332C278.435 215.461 278.292 215.551 278.113 215.605C277.936 215.656 277.733 215.672 277.505 215.651C277.274 215.63 277.074 215.558 276.905 215.434C276.736 215.309 276.611 215.142 276.531 214.933C276.452 214.725 276.423 214.489 276.444 214.225L276.466 213.978C276.505 213.552 276.634 213.23 276.854 213.013C277.075 212.797 277.366 212.705 277.726 212.737C278.022 212.764 278.253 212.862 278.42 213.03C278.586 213.197 278.677 213.421 278.692 213.702L278.318 213.668C278.282 213.287 278.076 213.079 277.7 213.045C277.45 213.022 277.252 213.093 277.106 213.258C276.962 213.421 276.874 213.669 276.843 214.003L276.822 214.234C276.793 214.552 276.842 214.811 276.971 215.012C277.099 215.212 277.287 215.324 277.535 215.346C277.675 215.359 277.799 215.354 277.906 215.333C278.014 215.311 278.106 215.267 278.181 215.199L278.239 214.563L277.584 214.503L277.611 214.2L278.638 214.293L278.544 215.332ZM280.396 215.665C280.241 215.817 280.028 215.88 279.757 215.856C279.533 215.835 279.368 215.755 279.261 215.615C279.157 215.473 279.115 215.275 279.137 215.019L279.261 213.65L279.621 213.682L279.498 215.042C279.469 215.361 279.584 215.532 279.843 215.556C280.118 215.581 280.31 215.495 280.42 215.298L280.559 213.767L280.919 213.8L280.728 215.905L280.385 215.874L280.396 215.665ZM281.286 214.877C281.315 214.554 281.415 214.301 281.586 214.12C281.757 213.936 281.966 213.856 282.214 213.878C282.46 213.901 282.648 214.003 282.776 214.184L282.876 213.087L283.236 213.12L282.964 216.108L282.634 216.078L282.637 215.851C282.477 216.014 282.268 216.084 282.012 216.061C281.768 216.038 281.578 215.92 281.442 215.707C281.307 215.493 281.254 215.226 281.283 214.904L281.286 214.877ZM281.642 214.95C281.62 215.189 281.653 215.38 281.739 215.524C281.825 215.668 281.955 215.747 282.129 215.763C282.357 215.784 282.533 215.697 282.657 215.501L282.745 214.535C282.655 214.326 282.499 214.212 282.276 214.192C282.099 214.176 281.956 214.232 281.845 214.359C281.734 214.486 281.666 214.683 281.642 214.95ZM284.824 216.277C284.807 216.233 284.797 216.158 284.794 216.05C284.611 216.209 284.403 216.278 284.171 216.257C283.963 216.238 283.798 216.164 283.675 216.035C283.554 215.905 283.501 215.75 283.517 215.57C283.537 215.351 283.636 215.188 283.813 215.083C283.991 214.976 284.231 214.936 284.533 214.964L284.883 214.996L284.898 214.83C284.91 214.704 284.881 214.601 284.813 214.52C284.744 214.438 284.637 214.391 284.491 214.377C284.362 214.366 284.252 214.388 284.159 214.445C284.066 214.502 284.015 214.577 284.007 214.669L283.645 214.636C283.655 214.531 283.701 214.433 283.784 214.343C283.868 214.251 283.976 214.182 284.108 214.137C284.242 214.091 284.385 214.076 284.538 214.09C284.781 214.112 284.965 214.19 285.092 214.324C285.218 214.457 285.274 214.63 285.26 214.843L285.172 215.812C285.155 216.005 285.165 216.161 285.204 216.28L285.201 216.311L284.824 216.277ZM284.252 215.948C284.365 215.958 284.474 215.939 284.581 215.89C284.687 215.841 284.767 215.771 284.821 215.682L284.86 215.25L284.578 215.225C284.137 215.185 283.905 215.294 283.882 215.552C283.872 215.665 283.901 215.756 283.971 215.827C284.04 215.897 284.134 215.937 284.252 215.948ZM286.223 214.282L286.211 214.547C286.39 214.36 286.609 214.278 286.868 214.301C287.313 214.341 287.515 214.613 287.473 215.115L287.347 216.506L286.987 216.473L287.113 215.08C287.126 214.929 287.101 214.813 287.039 214.734C286.978 214.656 286.876 214.61 286.732 214.597C286.615 214.586 286.51 214.608 286.416 214.662C286.322 214.716 286.246 214.792 286.188 214.888L286.051 216.388L285.692 216.355L285.883 214.251L286.223 214.282ZM287.901 215.477C287.931 215.149 288.03 214.896 288.2 214.716C288.369 214.535 288.579 214.456 288.829 214.479C289.086 214.502 289.278 214.611 289.405 214.806L289.444 214.574L289.773 214.604L289.586 216.658C289.562 216.93 289.461 217.138 289.285 217.28C289.11 217.422 288.886 217.481 288.614 217.456C288.462 217.442 288.316 217.397 288.177 217.319C288.038 217.241 287.935 217.142 287.869 217.022L288.075 216.823C288.212 217.028 288.392 217.14 288.615 217.16C288.79 217.176 288.931 217.139 289.037 217.049C289.145 216.96 289.206 216.826 289.223 216.647L289.239 216.466C289.08 216.619 288.876 216.684 288.627 216.661C288.381 216.639 288.19 216.522 288.055 216.309C287.921 216.097 287.87 215.82 287.901 215.477ZM288.259 215.551C288.238 215.788 288.269 215.98 288.354 216.125C288.439 216.268 288.569 216.348 288.744 216.364C288.971 216.385 289.147 216.297 289.272 216.1L289.36 215.139C289.268 214.928 289.111 214.813 288.891 214.793C288.716 214.777 288.573 214.832 288.462 214.96C288.351 215.087 288.283 215.284 288.259 215.551Z" fill="black"/>
<path id="Ka" d="M280.258 197.262L279.88 197.59L279.793 198.547L279.419 198.513L279.676 195.681L280.05 195.715L279.923 197.116L281.308 195.83L281.76 195.871L280.531 197.02L281.59 198.711L281.143 198.67L280.258 197.262ZM283.16 198.853C283.143 198.81 283.132 198.734 283.129 198.627C282.946 198.785 282.739 198.854 282.506 198.833C282.299 198.814 282.134 198.74 282.011 198.612C281.889 198.481 281.837 198.326 281.853 198.146C281.873 197.927 281.971 197.765 282.148 197.659C282.327 197.552 282.567 197.513 282.869 197.54L283.219 197.572L283.234 197.407C283.246 197.281 283.217 197.178 283.148 197.097C283.08 197.015 282.973 196.967 282.826 196.954C282.698 196.942 282.587 196.965 282.494 197.022C282.402 197.079 282.351 197.153 282.343 197.245L281.981 197.212C281.99 197.107 282.037 197.01 282.119 196.919C282.203 196.827 282.312 196.759 282.444 196.713C282.578 196.668 282.721 196.652 282.874 196.666C283.116 196.688 283.301 196.766 283.427 196.901C283.554 197.034 283.61 197.207 283.596 197.42L283.508 198.389C283.49 198.582 283.501 198.738 283.54 198.856L283.537 198.887L283.16 198.853ZM282.587 198.525C282.7 198.535 282.81 198.515 282.916 198.466C283.023 198.417 283.103 198.348 283.157 198.259L283.196 197.827L282.914 197.801C282.473 197.761 282.241 197.87 282.217 198.128C282.207 198.241 282.237 198.333 282.306 198.403C282.376 198.473 282.469 198.514 282.587 198.525Z" fill="black"/>
</g>
<g class="rumah" id="blokB">
<rect id="b5" x="150.729" y="49.6693" width="30.2113" height="14.8579" transform="rotate(7.95556 150.729 49.6693)" fill="white" stroke="black" stroke-width="0.3"/>
<rect id="b10" x="118.226" y="60.6693" width="30.2113" height="14.8579" transform="rotate(7.95556 118.226 60.6693)" fill="white" stroke="black" stroke-width="0.3"/>
<rect id="b11" x="120.226" y="45.6693" width="30.2113" height="14.8579" transform="rotate(7.95556 120.226 45.6693)" fill="white" stroke="black" stroke-width="0.3"/>
<rect id="b12" x="122.226" y="30.4694" width="30.2113" height="14.8579" transform="rotate(7.95556 122.226 30.4694)" fill="white" stroke="black" stroke-width="0.3"/>
<rect id="b6" x="152.729" y="34.6835" width="30.2113" height="14.8579" transform="rotate(7.95556 152.729 34.6835)" fill="white" stroke="black" stroke-width="0.3"/>
<rect id="b4" x="148.729" y="64.6693" width="30.2113" height="14.8579" transform="rotate(7.95556 148.729 64.6693)" fill="white" stroke="black" stroke-width="0.3"/>
<rect id="b9" x="116.226" y="75.6693" width="30.2113" height="14.8579" transform="rotate(7.95556 116.226 75.6693)" fill="white" stroke="black" stroke-width="0.3"/>
<rect id="b3" x="146.729" y="79.6693" width="30.2113" height="14.8579" transform="rotate(7.95556 146.729 79.6693)" fill="white" stroke="black" stroke-width="0.3"/>
<rect id="b8" x="114.226" y="90.6693" width="30.2113" height="14.8579" transform="rotate(7.95556 114.226 90.6693)" fill="white" stroke="black" stroke-width="0.3"/>
<rect id="b2" x="144.729" y="94.6693" width="30.2113" height="14.8579" transform="rotate(7.95556 144.729 94.6693)" fill="white" stroke="black" stroke-width="0.3"/>
<rect id="b7" x="154.828" y="19.4694" width="30.2113" height="14.8579" transform="rotate(7.95556 154.828 19.4694)" fill="white" stroke="black" stroke-width="0.3"/>
<rect id="b1" x="142.527" y="109.669" width="30.2113" height="14.8579" transform="rotate(7.95556 142.527 109.669)" fill="white" stroke="black" stroke-width="0.3"/>

</g>
<g id="Group 567">
<path id="5" d="M163.505 58.7215L164.206 55.9583L167.089 56.3845L166.991 57.0453L164.715 56.7088L164.318 58.2178C164.618 58.0963 164.943 58.0614 165.293 58.1132C165.806 58.189 166.188 58.4192 166.439 58.8038C166.691 59.1858 166.774 59.6654 166.688 60.2424C166.603 60.8221 166.378 61.2561 166.014 61.5445C165.653 61.8308 165.192 61.9324 164.63 61.8494C164.133 61.7759 163.748 61.578 163.474 61.2559C163.201 60.9338 163.078 60.5261 163.106 60.0327L163.783 60.1327C163.779 60.4612 163.857 60.7216 164.018 60.9139C164.18 61.1036 164.413 61.2209 164.717 61.2659C165.049 61.315 165.326 61.2401 165.548 61.0412C165.772 60.8427 165.913 60.5438 165.972 60.1445C166.028 59.7684 165.969 59.4517 165.797 59.1945C165.627 58.9352 165.372 58.7803 165.032 58.7301C164.721 58.684 164.466 58.7161 164.268 58.8263L164.056 58.9529L163.505 58.7215Z" fill="black"/>
<path id="10" d="M130.109 72.3412L129.391 72.2349L130.095 67.4703L128.575 67.7866L128.671 67.1374L130.833 66.6712L130.945 66.6878L130.109 72.3412ZM136.087 70.7727C135.963 71.61 135.728 72.211 135.382 72.5758C135.036 72.9405 134.559 73.078 133.951 72.9881C133.35 72.8993 132.935 72.6353 132.705 72.1959C132.476 71.7539 132.415 71.1367 132.521 70.3443L132.662 69.3899C132.785 68.5629 133.018 67.9696 133.364 67.61C133.709 67.2504 134.187 67.1158 134.798 67.206C135.403 67.2955 135.82 67.5559 136.048 67.9872C136.277 68.4159 136.336 69.0353 136.224 69.8453L136.087 70.7727ZM135.516 69.6894C135.606 69.084 135.586 68.6309 135.457 68.3301C135.328 68.0268 135.079 67.8478 134.711 67.7934C134.345 67.7393 134.058 67.8377 133.85 68.0886C133.642 68.3395 133.493 68.7505 133.403 69.3217L133.234 70.4655C133.144 71.0735 133.165 71.5359 133.297 71.8529C133.432 72.1678 133.679 72.3516 134.037 72.4046C134.39 72.4567 134.672 72.3589 134.882 72.1109C135.095 71.8634 135.249 71.4465 135.343 70.8603L135.516 69.6894Z" fill="black"/>
<path id="11" d="M132.109 57.3412L131.391 57.2349L132.095 52.4703L130.575 52.7866L130.671 52.1374L132.833 51.6712L132.945 51.6878L132.109 57.3412ZM136.553 57.9982L135.835 57.8919L136.539 53.1273L135.019 53.4436L135.115 52.7944L137.277 52.3282L137.389 52.3448L136.553 57.9982Z" fill="black"/>
<path id="12" d="M134.109 42.3412L133.391 42.2349L134.095 37.4703L132.575 37.7866L132.671 37.1374L134.833 36.6712L134.945 36.6878L134.109 42.3412ZM139.89 43.1959L136.204 42.6508L136.28 42.1369L138.547 40.2609C138.884 39.9763 139.122 39.7403 139.26 39.5528C139.401 39.3631 139.488 39.1587 139.521 38.9398C139.564 38.6461 139.511 38.3921 139.361 38.1777C139.211 37.9634 138.988 37.8343 138.691 37.7905C138.336 37.738 138.044 37.7988 137.815 37.973C137.59 38.145 137.451 38.4113 137.397 38.772L136.682 38.6663C136.759 38.1485 136.987 37.7544 137.367 37.4841C137.749 37.2142 138.219 37.1205 138.778 37.2032C139.301 37.2805 139.694 37.4794 139.958 37.8C140.221 38.118 140.319 38.505 140.252 38.961C140.17 39.5149 139.72 40.1222 138.901 40.783L137.152 42.1947L139.977 42.6124L139.89 43.1959Z" fill="black"/>
<path id="6" d="M168.398 41.2784L168.308 41.8851L168.177 41.8657C167.619 41.7937 167.151 41.8931 166.774 42.1638C166.397 42.4345 166.14 42.8558 166.003 43.4278C166.35 43.1316 166.779 43.0214 167.292 43.0971C167.781 43.1695 168.146 43.3998 168.386 43.7881C168.629 44.1767 168.71 44.6441 168.629 45.1902C168.543 45.7699 168.316 46.2101 167.948 46.5111C167.582 46.8124 167.134 46.9238 166.603 46.8454C166.065 46.7658 165.659 46.4951 165.385 46.0334C165.111 45.5691 165.023 45.0111 165.119 44.3593L165.16 44.085C165.313 43.0494 165.65 42.2911 166.171 41.81C166.695 41.3268 167.395 41.1433 168.27 41.2596L168.398 41.2784ZM167.084 43.6745C166.839 43.6383 166.603 43.6784 166.375 43.7948C166.147 43.9112 165.977 44.0742 165.865 44.284L165.826 44.5468C165.757 45.0105 165.806 45.3994 165.973 45.7137C166.14 46.0279 166.379 46.2081 166.691 46.2541C167.013 46.3017 167.283 46.2206 167.501 46.0106C167.721 45.801 167.86 45.5043 167.917 45.1204C167.974 44.734 167.926 44.4084 167.773 44.1436C167.623 43.8766 167.393 43.7202 167.084 43.6745Z" fill="black"/>
<path id="4" d="M164.006 75.0083L164.788 75.1119L164.711 75.6966L163.929 75.5931L163.755 76.9019L163.035 76.8066L163.209 75.4977L160.641 75.1577L160.697 74.7356L163.739 71.1626L164.502 71.2637L164.006 75.0083ZM161.532 74.6807L163.286 74.9129L163.652 72.148L163.546 72.2916L161.532 74.6807Z" fill="black"/>
<path id="9" d="M130.805 84.8867C130.632 85.045 130.433 85.1645 130.21 85.2452C129.989 85.3263 129.754 85.3504 129.507 85.3176C129.181 85.2745 128.908 85.1569 128.686 84.9647C128.468 84.7729 128.311 84.5237 128.218 84.2171C128.125 83.9079 128.102 83.5778 128.148 83.2267C128.198 82.8498 128.314 82.5197 128.496 82.2364C128.681 81.9535 128.915 81.7495 129.2 81.6243C129.484 81.4991 129.802 81.4597 130.153 81.5062C130.711 81.5801 131.122 81.8473 131.387 82.3079C131.654 82.7663 131.74 83.3556 131.645 84.0759L131.617 84.285C131.472 85.3822 131.149 86.1551 130.648 86.6036C130.148 87.0496 129.459 87.2211 128.583 87.1182L128.443 87.0997L128.523 86.4956L128.674 86.5156C129.267 86.5835 129.741 86.4901 130.098 86.2353C130.455 85.9778 130.691 85.5283 130.805 84.8867ZM129.701 84.7405C129.941 84.7723 130.172 84.728 130.393 84.6075C130.616 84.4873 130.789 84.325 130.91 84.1204L130.948 83.8339C131.01 83.364 130.959 82.9684 130.794 82.6471C130.629 82.3258 130.39 82.1445 130.078 82.1031C129.763 82.0614 129.494 82.1492 129.271 82.3666C129.048 82.5814 128.91 82.8863 128.858 83.2813C128.807 83.6659 128.857 83.9956 129.007 84.2703C129.16 84.5428 129.391 84.6995 129.701 84.7405Z" fill="black"/>
<path id="3" d="M160.324 88.5209L160.862 88.5964C161.2 88.6386 161.478 88.5869 161.696 88.4413C161.914 88.2956 162.043 88.0758 162.084 87.7818C162.177 87.1216 161.895 86.7454 161.237 86.6531C160.927 86.6097 160.667 86.6639 160.457 86.8158C160.249 86.9655 160.125 87.186 160.084 87.4775L159.368 87.3771C159.431 86.9309 159.645 86.5836 160.011 86.3352C160.381 86.0846 160.817 85.9946 161.319 86.0651C161.851 86.1396 162.247 86.3386 162.51 86.662C162.772 86.9855 162.868 87.3973 162.798 87.8977C162.764 88.1427 162.65 88.3687 162.458 88.5758C162.269 88.7832 162.029 88.9245 161.74 88.9997C162.036 89.1411 162.252 89.337 162.387 89.5875C162.526 89.8383 162.572 90.1275 162.526 90.455C162.455 90.9604 162.234 91.3383 161.862 91.5886C161.49 91.8388 161.04 91.9269 160.511 91.8527C159.983 91.7786 159.572 91.575 159.28 91.2421C158.99 90.9095 158.878 90.5085 158.944 90.0392L159.663 90.1401C159.621 90.4367 159.685 90.6875 159.853 90.8926C160.022 91.0977 160.268 91.223 160.593 91.2686C160.939 91.3171 161.216 91.2639 161.424 91.1091C161.633 90.9542 161.761 90.7079 161.808 90.3701C161.854 90.0425 161.789 89.777 161.612 89.5734C161.436 89.3698 161.158 89.2388 160.78 89.1805L160.242 89.1051L160.324 88.5209Z" fill="black"/>
<path id="8" d="M129.746 98.3146C129.706 98.5957 129.596 98.8354 129.416 99.0336C129.238 99.2322 129.014 99.3756 128.744 99.464C129.02 99.6316 129.227 99.8485 129.363 100.115C129.502 100.381 129.549 100.668 129.506 100.975C129.438 101.463 129.219 101.828 128.848 102.07C128.48 102.313 128.028 102.397 127.491 102.322C126.95 102.246 126.535 102.04 126.248 101.705C125.964 101.368 125.856 100.957 125.924 100.473C125.967 100.168 126.088 99.9052 126.287 99.6834C126.489 99.4619 126.746 99.3086 127.058 99.2235C126.825 99.0646 126.652 98.8654 126.538 98.626C126.425 98.3865 126.387 98.1275 126.426 97.849C126.493 97.3745 126.698 97.0193 127.041 96.7835C127.385 96.5476 127.805 96.4646 128.303 96.5345C128.798 96.6039 129.178 96.7993 129.444 97.1205C129.711 97.442 129.812 97.8401 129.746 98.3146ZM128.793 100.859C128.837 100.545 128.772 100.274 128.599 100.047C128.428 99.8207 128.182 99.6849 127.86 99.6397C127.537 99.5944 127.264 99.6561 127.041 99.8246C126.82 99.9934 126.687 100.238 126.642 100.558C126.597 100.877 126.656 101.142 126.819 101.352C126.984 101.561 127.235 101.69 127.573 101.737C127.908 101.784 128.184 101.73 128.401 101.573C128.618 101.415 128.748 101.176 128.793 100.859ZM128.221 97.1224C127.939 97.083 127.699 97.1387 127.499 97.2894C127.302 97.438 127.182 97.6618 127.14 97.961C127.1 98.2472 127.153 98.4913 127.298 98.6931C127.446 98.8927 127.664 99.0126 127.95 99.0528C128.236 99.0929 128.477 99.0373 128.671 98.8858C128.869 98.7321 128.988 98.5121 129.028 98.2258C129.068 97.9396 129.012 97.6937 128.86 97.4882C128.707 97.2827 128.494 97.1608 128.221 97.1224Z" fill="black"/>
<path id="2" d="M160.426 106.992L156.732 106.501L156.8 105.986L159.039 104.077C159.372 103.787 159.606 103.548 159.741 103.358C159.88 103.166 159.964 102.961 159.993 102.741C160.032 102.447 159.975 102.194 159.822 101.982C159.669 101.77 159.444 101.644 159.147 101.605C158.79 101.557 158.499 101.623 158.274 101.8C158.051 101.975 157.915 102.244 157.867 102.605L157.151 102.51C157.22 101.991 157.442 101.594 157.817 101.318C158.195 101.042 158.665 100.942 159.225 101.016C159.749 101.086 160.145 101.279 160.413 101.595C160.681 101.909 160.785 102.295 160.724 102.752C160.651 103.307 160.209 103.921 159.4 104.594L157.673 106.031L160.503 106.407L160.426 106.992Z" fill="black"/>
<path id="7" d="M171.066 26.249L168.036 31.1745L167.285 31.0748L170.283 26.3342L167.231 25.9293L167.309 25.3407L171.12 25.8463L171.066 26.249Z" fill="black"/>
<path id="1" d="M157.115 121.848L156.396 121.739L157.118 116.977L155.597 117.288L155.696 116.639L157.859 116.18L157.971 116.197L157.115 121.848Z" fill="black"/>
</g>
<g class="rumah" id="blokA">
<rect id="a1" x="225.209" y="64.6686" width="30.1369" height="15.3899" transform="rotate(7.61874 225.209 64.6686)" fill="white" stroke="black" stroke-width="0.3"/>
<rect id="a10" x="195.149" y="60.6686" width="30.1369" height="15.3899" transform="rotate(7.61874 195.149 60.6686)" fill="white" stroke="black" stroke-width="0.3"/>
<rect id="a2" x="223.209" y="79.6686" width="30.1369" height="15.3899" transform="rotate(7.61874 223.209 79.6686)" fill="white" stroke="black" stroke-width="0.3"/>
<rect id="a9" x="193.149" y="75.6686" width="30.1369" height="15.3899" transform="rotate(7.61874 193.149 75.6686)" fill="white" stroke="black" stroke-width="0.3"/>
<rect id="a3" x="221.209" y="94.6686" width="30.1369" height="15.3899" transform="rotate(7.61874 221.209 94.6686)" fill="white" stroke="black" stroke-width="0.3"/>
<rect id="a8" x="191.149" y="90.6686" width="30.1369" height="15.3899" transform="rotate(7.61874 191.149 90.6686)" fill="white" stroke="black" stroke-width="0.3"/>
<rect id="a4" x="219.209" y="109.669" width="30.1369" height="15.3899" transform="rotate(7.61874 219.209 109.669)" fill="white" stroke="black" stroke-width="0.3"/>
<rect id="a7" x="189.149" y="105.669" width="30.1369" height="15.3899" transform="rotate(7.61874 189.149 105.669)" fill="white" stroke="black" stroke-width="0.3"/>
<rect id="a5" x="217.209" y="124.669" width="30.1369" height="15.3899" transform="rotate(7.61874 217.209 124.669)" fill="white" stroke="black" stroke-width="0.3"/>
<rect id="a6" x="187.149" y="120.669" width="30.1369" height="15.3899" transform="rotate(7.61874 187.149 120.669)" fill="white" stroke="black" stroke-width="0.3"/>

</g>
<g id="Group 566">
<path id="1_2" d="M239.11 76.8412L238.391 76.7349L239.095 71.9703L237.576 72.2866L237.672 71.6374L239.833 71.1712L239.945 71.1878L239.11 76.8412Z" fill="black"/>
<path id="10_2" d="M207.11 72.8412L206.391 72.7349L207.095 67.9703L205.576 68.2866L205.672 67.6374L207.833 67.1712L207.945 67.1878L207.11 72.8412ZM213.087 71.2727C212.963 72.11 212.728 72.711 212.382 73.0758C212.036 73.4405 211.559 73.578 210.951 73.4881C210.351 73.3993 209.936 73.1353 209.706 72.6959C209.476 72.2539 209.415 71.6367 209.521 70.8443L209.663 69.8899C209.785 69.0629 210.019 68.4696 210.364 68.11C210.709 67.7504 211.187 67.6158 211.798 67.706C212.403 67.7955 212.82 68.0559 213.049 68.4872C213.277 68.9159 213.336 69.5353 213.224 70.3453L213.087 71.2727ZM212.517 70.1894C212.606 69.584 212.586 69.1309 212.457 68.8301C212.328 68.5268 212.079 68.3478 211.711 68.2934C211.345 68.2393 211.058 68.3377 210.85 68.5886C210.642 68.8395 210.493 69.2505 210.403 69.8217L210.234 70.9655C210.144 71.5735 210.165 72.0359 210.297 72.3529C210.432 72.6678 210.679 72.8516 211.037 72.9046C211.39 72.9567 211.672 72.8589 211.882 72.6109C212.095 72.3634 212.249 71.9465 212.343 71.3603L212.517 70.1894Z" fill="black"/>
<path id="2_2" d="M238.426 91.9906L234.731 91.5015L234.8 90.9864L237.038 89.0763C237.371 88.7867 237.605 88.5471 237.74 88.3575C237.879 88.1657 237.962 87.9601 237.992 87.7406C238.03 87.4463 237.973 87.1932 237.82 86.9811C237.667 86.7691 237.442 86.6434 237.145 86.6041C236.789 86.5569 236.498 86.6221 236.272 86.7997C236.049 86.9751 235.914 87.2435 235.866 87.605L235.15 87.5101C235.218 86.9912 235.44 86.5937 235.816 86.3177C236.194 86.042 236.663 85.9413 237.223 86.0155C237.747 86.0848 238.143 86.2778 238.411 86.5944C238.68 86.9084 238.784 87.2939 238.723 87.7508C238.65 88.3059 238.208 88.9199 237.399 89.593L235.672 91.0311L238.503 91.4059L238.426 91.9906Z" fill="black"/>
<path id="9_2" d="M207.805 86.3867C207.632 86.545 207.433 86.6645 207.21 86.7452C206.989 86.8263 206.755 86.8504 206.507 86.8176C206.182 86.7745 205.908 86.6569 205.687 86.4647C205.468 86.2729 205.312 86.0237 205.218 85.7171C205.125 85.4079 205.102 85.0778 205.148 84.7267C205.198 84.3498 205.314 84.0197 205.496 83.7364C205.681 83.4535 205.915 83.2495 206.2 83.1243C206.484 82.9991 206.802 82.9597 207.153 83.0062C207.711 83.0801 208.122 83.3473 208.387 83.8079C208.655 84.2663 208.741 84.8556 208.645 85.5759L208.618 85.785C208.472 86.8822 208.149 87.6551 207.649 88.1036C207.148 88.5496 206.46 88.7211 205.583 88.6182L205.443 88.5997L205.523 87.9956L205.674 88.0156C206.267 88.0835 206.742 87.9901 207.098 87.7353C207.456 87.4778 207.691 87.0283 207.805 86.3867ZM206.701 86.2405C206.942 86.2723 207.172 86.228 207.393 86.1075C207.616 85.9873 207.789 85.825 207.91 85.6204L207.948 85.3339C208.011 84.864 207.959 84.4684 207.794 84.1471C207.629 83.8258 207.391 83.6445 207.078 83.6031C206.763 83.5614 206.494 83.6492 206.271 83.8666C206.048 84.0814 205.911 84.3863 205.858 84.7813C205.807 85.1659 205.857 85.4956 206.007 85.7703C206.16 86.0428 206.392 86.1995 206.701 86.2405Z" fill="black"/>
<path id="3_2" d="M234.324 103.521L234.862 103.596C235.201 103.639 235.479 103.587 235.696 103.441C235.914 103.296 236.043 103.076 236.085 102.782C236.177 102.122 235.895 101.745 235.237 101.653C234.928 101.61 234.668 101.664 234.457 101.816C234.249 101.965 234.125 102.186 234.084 102.477L233.369 102.377C233.431 101.931 233.645 101.584 234.012 101.335C234.381 101.085 234.817 100.995 235.32 101.065C235.851 101.14 236.248 101.339 236.51 101.662C236.772 101.985 236.868 102.397 236.798 102.898C236.764 103.143 236.651 103.369 236.458 103.576C236.269 103.783 236.03 103.925 235.74 104C236.036 104.141 236.252 104.337 236.388 104.587C236.526 104.838 236.572 105.127 236.526 105.455C236.455 105.96 236.234 106.338 235.862 106.589C235.491 106.839 235.04 106.927 234.512 106.853C233.983 106.779 233.572 106.575 233.28 106.242C232.99 105.91 232.878 105.509 232.944 105.039L233.663 105.14C233.622 105.437 233.685 105.688 233.854 105.893C234.022 106.098 234.269 106.223 234.594 106.269C234.939 106.317 235.216 106.264 235.425 106.109C235.633 105.954 235.761 105.708 235.808 105.37C235.854 105.043 235.789 104.777 235.612 104.573C235.436 104.37 235.158 104.239 234.78 104.181L234.242 104.105L234.324 103.521Z" fill="black"/>
<path id="8_2" d="M206.84 98.8561C206.8 99.1372 206.69 99.3769 206.51 99.5751C206.332 99.7737 206.108 99.9171 205.838 100.005C206.114 100.173 206.321 100.39 206.457 100.656C206.596 100.923 206.643 101.21 206.6 101.517C206.532 102.004 206.312 102.369 205.942 102.612C205.574 102.854 205.122 102.938 204.585 102.863C204.044 102.787 203.629 102.582 203.342 102.247C203.058 101.91 202.95 101.499 203.018 101.014C203.061 100.71 203.182 100.447 203.381 100.225C203.583 100.003 203.84 99.8501 204.152 99.765C203.919 99.6061 203.746 99.4069 203.632 99.1675C203.519 98.928 203.481 98.669 203.52 98.3905C203.587 97.916 203.792 97.5608 204.135 97.325C204.479 97.0891 204.899 97.0061 205.397 97.076C205.892 97.1454 206.272 97.3408 206.538 97.662C206.805 97.9836 206.906 98.3816 206.84 98.8561ZM205.887 101.401C205.931 101.086 205.866 100.815 205.693 100.589C205.522 100.362 205.276 100.226 204.954 100.181C204.631 100.136 204.358 100.198 204.135 100.366C203.914 100.535 203.781 100.779 203.736 101.099C203.691 101.419 203.75 101.683 203.913 101.893C204.078 102.103 204.329 102.232 204.667 102.279C205.002 102.326 205.278 102.271 205.495 102.115C205.712 101.956 205.842 101.718 205.887 101.401ZM205.315 97.6639C205.033 97.6245 204.793 97.6802 204.593 97.8309C204.396 97.9795 204.276 98.2033 204.234 98.5025C204.194 98.7888 204.247 99.0328 204.392 99.2346C204.54 99.4342 204.758 99.5541 205.044 99.5943C205.33 99.6344 205.571 99.5788 205.765 99.4273C205.963 99.2736 206.082 99.0536 206.122 98.7673C206.162 98.4811 206.106 98.2352 205.954 98.0297C205.801 97.8242 205.588 97.7023 205.315 97.6639Z" fill="black"/>
<path id="4_2" d="M234.007 120.009L234.79 120.113L234.712 120.698L233.93 120.594L233.756 121.903L233.036 121.807L233.209 120.498L230.642 120.158L230.698 119.735L233.741 116.163L234.504 116.265L234.007 120.009ZM231.533 119.681L233.287 119.914L233.654 117.149L233.548 117.292L231.533 119.681Z" fill="black"/>
<path id="7_2" d="M205.066 113.749L202.037 118.675L201.285 118.575L204.283 113.834L201.231 113.429L201.31 112.841L205.12 113.346L205.066 113.749Z" fill="black"/>
<path id="5_2" d="M229.522 133.722L230.233 130.962L233.114 131.398L233.014 132.058L230.739 131.714L230.337 133.221C230.637 133.101 230.962 133.067 231.312 133.12C231.825 133.198 232.206 133.429 232.456 133.815C232.706 134.198 232.787 134.678 232.7 135.254C232.612 135.834 232.386 136.267 232.021 136.554C231.659 136.839 231.197 136.939 230.636 136.854C230.139 136.779 229.754 136.58 229.482 136.256C229.21 135.933 229.088 135.525 229.118 135.032L229.794 135.134C229.789 135.463 229.867 135.723 230.027 135.916C230.188 136.107 230.421 136.225 230.724 136.271C231.057 136.321 231.334 136.247 231.556 136.049C231.781 135.851 231.924 135.553 231.984 135.154C232.041 134.778 231.984 134.461 231.812 134.203C231.643 133.943 231.389 133.788 231.049 133.736C230.738 133.689 230.483 133.72 230.284 133.83L230.072 133.956L229.522 133.722Z" fill="black"/>
<path id="6_2" d="M202.423 127.289L202.332 127.896L202.2 127.876C201.642 127.802 201.175 127.9 200.797 128.169C200.419 128.438 200.16 128.859 200.021 129.43C200.368 129.135 200.798 129.027 201.311 129.104C201.8 129.178 202.164 129.41 202.403 129.799C202.644 130.189 202.723 130.656 202.64 131.202C202.553 131.781 202.324 132.221 201.955 132.52C201.588 132.82 201.139 132.93 200.609 132.85C200.071 132.768 199.666 132.496 199.393 132.034C199.121 131.568 199.035 131.01 199.134 130.359L199.175 130.084C199.332 129.049 199.672 128.292 200.195 127.813C200.721 127.332 201.421 127.151 202.296 127.27L202.423 127.289ZM201.101 129.681C200.856 129.644 200.62 129.683 200.392 129.799C200.164 129.914 199.993 130.077 199.879 130.286L199.84 130.549C199.769 131.012 199.817 131.401 199.983 131.716C200.148 132.031 200.387 132.212 200.699 132.259C201.02 132.308 201.291 132.228 201.509 132.018C201.731 131.81 201.87 131.513 201.928 131.13C201.987 130.744 201.94 130.418 201.788 130.152C201.639 129.885 201.41 129.728 201.101 129.681Z" fill="black"/>
</g>
<g class="rumah" id="blokC">
<rect id="c1" x="216.004" y="168.859" width="15.0309" height="29.9963" transform="rotate(18.7366 216.004 168.859)" fill="white" stroke="black" stroke-width="0.3"/>
<rect id="c2" x="201.485" y="163.934" width="15.0309" height="29.9963" transform="rotate(18.7366 201.485 163.934)" fill="white" stroke="black" stroke-width="0.3"/>
<rect id="c3" x="186.967" y="159.009" width="15.0309" height="29.9963" transform="rotate(18.7366 186.967 159.009)" fill="white" stroke="black" stroke-width="0.3"/>
<rect id="c4" x="172.449" y="154.085" width="15.0309" height="29.9963" transform="rotate(18.7366 172.449 154.085)" fill="white" stroke="black" stroke-width="0.3"/>
<rect id="c5" x="157.93" y="149.16" width="15.0309" height="29.9963" transform="rotate(18.7366 157.93 149.16)" fill="white" stroke="black" stroke-width="0.3"/>
<rect id="c6" x="143.411" y="144.236" width="15.0309" height="29.9963" transform="rotate(18.7366 143.411 144.236)" fill="white" stroke="black" stroke-width="0.3"/>
<rect id="c7" x="128.893" y="139.311" width="15.0309" height="29.9963" transform="rotate(18.7366 128.893 139.311)" fill="white" stroke="black" stroke-width="0.3"/>
<rect id="c8" x="114.375" y="134.387" width="15.0309" height="29.9963" transform="rotate(18.7366 114.375 134.387)" fill="white" stroke="black" stroke-width="0.3"/>
<rect id="c9" x="99.8563" y="129.462" width="15.0309" height="29.9963" transform="rotate(18.7366 99.8563 129.462)" fill="white" stroke="black" stroke-width="0.3"/>
<rect id="c10" x="85.3378" y="124.538" width="15.0309" height="29.9963" transform="rotate(18.7366 85.3378 124.538)" fill="white" stroke="black" stroke-width="0.3"/>
<rect id="c11" x="70.8192" y="119.613" width="15.0309" height="29.9963" transform="rotate(18.7366 70.8192 119.613)" fill="white" stroke="black" stroke-width="0.3"/>
<rect id="c12" x="56.3007" y="114.689" width="15.0309" height="29.9963" transform="rotate(18.7366 56.3007 114.689)" fill="white" stroke="black" stroke-width="0.3"/>
<rect id="c13" x="41.7655" y="109.758" width="15.0309" height="29.9963" transform="rotate(18.7366 41.7655 109.758)" fill="white" stroke="black" stroke-width="0.3"/>

</g>
<g id="Group 565">
<path id="1_3" d="M217.869 188.448L217.181 188.214L218.728 183.653L217.176 183.692L217.387 183.07L219.597 182.999L219.705 183.036L217.869 188.448Z" fill="black"/>
<path id="2_3" d="M204.944 184.063L201.415 182.866L201.581 182.374L204.149 180.935C204.531 180.716 204.807 180.526 204.977 180.366C205.15 180.205 205.272 180.02 205.343 179.81C205.438 179.529 205.431 179.269 205.322 179.032C205.213 178.794 205.017 178.627 204.733 178.531C204.393 178.415 204.095 178.423 203.839 178.553C203.586 178.682 203.401 178.919 203.284 179.264L202.6 179.032C202.768 178.536 203.063 178.19 203.485 177.992C203.909 177.795 204.389 177.787 204.924 177.968C205.425 178.138 205.776 178.404 205.977 178.767C206.179 179.127 206.207 179.525 206.059 179.962C205.879 180.492 205.327 181.009 204.402 181.512L202.429 182.588L205.133 183.505L204.944 184.063Z" fill="black"/>
<path id="3_3" d="M189.231 175.36L189.745 175.534C190.07 175.639 190.353 175.64 190.594 175.537C190.835 175.435 191.003 175.243 191.098 174.962C191.313 174.33 191.105 173.908 190.476 173.695C190.18 173.594 189.915 173.599 189.679 173.709C189.448 173.817 189.284 174.011 189.19 174.29L188.505 174.057C188.65 173.631 188.926 173.33 189.332 173.154C189.741 172.976 190.186 172.969 190.667 173.132C191.175 173.305 191.528 173.574 191.725 173.941C191.922 174.308 191.94 174.73 191.778 175.209C191.698 175.443 191.545 175.644 191.318 175.812C191.093 175.98 190.831 176.074 190.533 176.094C190.797 176.288 190.972 176.521 191.059 176.792C191.148 177.064 191.14 177.357 191.033 177.67C190.87 178.154 190.582 178.484 190.17 178.66C189.758 178.837 189.299 178.839 188.794 178.668C188.288 178.496 187.923 178.22 187.697 177.838C187.475 177.457 187.439 177.042 187.591 176.594L188.28 176.827C188.183 177.111 188.199 177.369 188.326 177.602C188.453 177.835 188.672 178.004 188.983 178.109C189.314 178.221 189.596 178.221 189.829 178.107C190.063 177.994 190.235 177.776 190.344 177.453C190.45 177.14 190.436 176.867 190.3 176.634C190.165 176.401 189.917 176.22 189.556 176.093L189.042 175.918L189.231 175.36Z" fill="black"/>
<path id="4_3" d="M175.56 172.079L176.308 172.333L176.118 172.891L175.371 172.638L174.947 173.888L174.259 173.655L174.683 172.405L172.23 171.573L172.367 171.169L176.045 168.255L176.774 168.502L175.56 172.079ZM173.197 171.278L174.872 171.846L175.768 169.205L175.637 169.325L173.197 171.278Z" fill="black"/>
<path id="5_3" d="M159.083 165.496L160.268 162.903L163.027 163.839L162.813 164.472L160.634 163.733L159.973 165.146C160.29 165.08 160.616 165.104 160.951 165.218C161.442 165.385 161.776 165.679 161.954 166.103C162.133 166.524 162.129 167.01 161.942 167.563C161.753 168.118 161.455 168.505 161.045 168.723C160.639 168.94 160.167 168.957 159.629 168.775C159.153 168.613 158.809 168.35 158.598 167.984C158.387 167.618 158.339 167.195 158.455 166.714L159.103 166.934C159.04 167.256 159.071 167.527 159.195 167.745C159.32 167.96 159.527 168.118 159.818 168.216C160.137 168.324 160.423 168.3 160.676 168.144C160.932 167.989 161.125 167.72 161.255 167.338C161.377 166.978 161.376 166.656 161.252 166.372C161.132 166.087 160.909 165.889 160.584 165.778C160.285 165.677 160.029 165.663 159.814 165.736L159.583 165.822L159.083 165.496Z" fill="black"/>
<path id="6_3" d="M148.161 158.793L147.964 159.373L147.839 159.331C147.303 159.16 146.825 159.174 146.405 159.373C145.986 159.571 145.658 159.94 145.42 160.478C145.814 160.249 146.256 160.217 146.747 160.384C147.216 160.543 147.533 160.835 147.7 161.26C147.869 161.685 147.865 162.16 147.688 162.683C147.499 163.237 147.197 163.63 146.781 163.86C146.367 164.091 145.906 164.12 145.398 163.948C144.883 163.773 144.532 163.434 144.345 162.93C144.159 162.425 144.172 161.86 144.383 161.236L144.472 160.973C144.809 159.982 145.276 159.296 145.875 158.916C146.478 158.535 147.199 158.48 148.039 158.751L148.161 158.793ZM146.439 160.914C146.205 160.835 145.965 160.832 145.72 160.906C145.475 160.979 145.279 161.109 145.13 161.295L145.045 161.547C144.894 161.991 144.873 162.382 144.981 162.721C145.089 163.06 145.292 163.281 145.59 163.382C145.898 163.486 146.178 163.455 146.431 163.287C146.685 163.121 146.875 162.854 146.999 162.486C147.125 162.116 147.136 161.787 147.033 161.499C146.933 161.21 146.735 161.015 146.439 160.914Z" fill="black"/>
<path id="7_3" d="M133.669 154.31L129.742 158.555L129.025 158.311L132.884 154.242L129.969 153.253L130.16 152.691L133.8 153.925L133.669 154.31Z" fill="black"/>
<path id="8_3" d="M118.907 150.441C118.816 150.71 118.663 150.925 118.449 151.086C118.237 151.248 117.991 151.347 117.709 151.383C117.949 151.6 118.111 151.851 118.195 152.138C118.282 152.426 118.275 152.717 118.176 153.01C118.018 153.476 117.734 153.794 117.325 153.963C116.918 154.133 116.458 154.131 115.945 153.957C115.427 153.781 115.058 153.502 114.839 153.12C114.623 152.736 114.593 152.312 114.75 151.848C114.849 151.557 115.017 151.321 115.254 151.141C115.494 150.961 115.775 150.858 116.097 150.833C115.898 150.633 115.765 150.405 115.698 150.149C115.631 149.892 115.643 149.631 115.733 149.364C115.887 148.911 116.155 148.6 116.536 148.432C116.917 148.265 117.346 148.262 117.822 148.423C118.296 148.584 118.633 148.846 118.833 149.212C119.036 149.577 119.061 149.987 118.907 150.441ZM117.497 152.763C117.599 152.462 117.586 152.184 117.458 151.929C117.332 151.675 117.115 151.496 116.807 151.391C116.499 151.286 116.219 151.296 115.968 151.42C115.72 151.545 115.544 151.76 115.44 152.066C115.336 152.371 115.345 152.642 115.465 152.879C115.588 153.116 115.811 153.289 116.134 153.399C116.455 153.507 116.736 153.505 116.978 153.392C117.221 153.276 117.394 153.067 117.497 152.763ZM117.631 148.985C117.363 148.894 117.116 148.904 116.891 149.015C116.67 149.124 116.511 149.322 116.414 149.608C116.321 149.881 116.327 150.131 116.432 150.356C116.54 150.58 116.731 150.738 117.005 150.831C117.279 150.924 117.526 150.914 117.745 150.802C117.968 150.688 118.126 150.494 118.219 150.22C118.312 149.946 118.303 149.694 118.191 149.464C118.079 149.234 117.893 149.074 117.631 148.985Z" fill="black"/>
<path id="9_3" d="M103.511 147.017C103.311 147.139 103.093 147.218 102.858 147.253C102.625 147.29 102.391 147.268 102.154 147.188C101.843 147.083 101.598 146.914 101.418 146.683C101.241 146.452 101.136 146.177 101.104 145.858C101.072 145.537 101.114 145.208 101.227 144.873C101.35 144.513 101.527 144.212 101.761 143.969C101.997 143.728 102.267 143.573 102.57 143.505C102.873 143.438 103.193 143.461 103.528 143.575C104.061 143.755 104.412 144.097 104.583 144.6C104.756 145.102 104.726 145.697 104.493 146.385L104.425 146.585C104.07 147.633 103.603 148.328 103.025 148.671C102.447 149.012 101.738 149.046 100.898 148.775L100.765 148.73L100.961 148.153L101.105 148.202C101.673 148.383 102.157 148.384 102.556 148.203C102.957 148.02 103.275 147.625 103.511 147.017ZM102.457 146.66C102.686 146.737 102.921 146.739 103.161 146.663C103.404 146.589 103.604 146.463 103.763 146.286L103.856 146.012C104.009 145.563 104.035 145.165 103.935 144.818C103.836 144.471 103.637 144.247 103.339 144.146C103.038 144.043 102.757 144.077 102.496 144.247C102.235 144.415 102.041 144.687 101.913 145.064C101.789 145.432 101.773 145.765 101.867 146.064C101.965 146.361 102.161 146.559 102.457 146.66Z" fill="black"/>
<path id="10_3" d="M85.2887 143.476L84.6007 143.242L86.1478 138.681L84.5961 138.72L84.8069 138.099L87.0172 138.028L87.1245 138.064L85.2887 143.476ZM91.4503 143.004C91.1785 143.806 90.8396 144.355 90.4337 144.652C90.0277 144.949 89.5338 144.998 88.9518 144.801C88.3772 144.606 88.0162 144.272 87.8688 143.798C87.7222 143.322 87.7724 142.704 88.0194 141.944L88.3293 141.03C88.5978 140.238 88.9342 139.697 89.3385 139.405C89.7427 139.113 90.2371 139.066 90.8215 139.264C91.4011 139.461 91.7646 139.792 91.912 140.257C92.0603 140.72 92.0068 141.34 91.7515 142.117L91.4503 143.004ZM91.0834 141.836C91.28 141.257 91.3417 140.807 91.2684 140.488C91.196 140.167 90.9835 139.946 90.6308 139.827C90.2806 139.708 89.9806 139.753 89.7308 139.963C89.481 140.172 89.2608 140.55 89.0701 141.096L88.6987 142.191C88.5013 142.773 88.4392 143.231 88.5123 143.567C88.5888 143.901 88.7984 144.126 89.1412 144.242C89.4791 144.357 89.7738 144.311 90.0252 144.105C90.2791 143.9 90.5051 143.517 90.7032 142.957L91.0834 141.836Z" fill="black"/>
<path id="11_2" d="M71.0837 138.658L70.3956 138.424L71.9428 133.863L70.391 133.902L70.6018 133.28L72.8121 133.209L72.9194 133.246L71.0837 138.658ZM75.3378 140.101L74.6497 139.867L76.1969 135.306L74.6451 135.345L74.856 134.723L77.0662 134.652L77.1735 134.689L75.3378 140.101Z" fill="black"/>
<path id="12_2" d="M55.9313 133.518L55.2433 133.284L56.7904 128.723L55.2387 128.762L55.4495 128.141L57.6598 128.07L57.7671 128.106L55.9313 133.518ZM61.4654 135.395L57.9363 134.198L58.1032 133.706L60.6703 132.267C61.0527 132.047 61.3288 131.858 61.4984 131.698C61.6714 131.537 61.7934 131.351 61.8645 131.142C61.9599 130.86 61.953 130.601 61.8439 130.363C61.7348 130.126 61.5385 129.959 61.2549 129.862C60.9146 129.747 60.6164 129.754 60.3604 129.885C60.1077 130.014 59.9229 130.251 59.8057 130.596L59.1214 130.364C59.2895 129.868 59.5845 129.521 60.0064 129.323C60.4307 129.126 60.9105 129.119 61.4456 129.3C61.9462 129.47 62.2973 129.736 62.4988 130.099C62.7011 130.459 62.7283 130.857 62.5802 131.294C62.4004 131.824 61.8483 132.341 60.9242 132.844L58.9507 133.919L61.6548 134.836L61.4654 135.395Z" fill="black"/>
<path id="13" d="M41.7262 128.7L41.0382 128.466L42.5853 123.905L41.0336 123.944L41.2444 123.322L43.4547 123.251L43.562 123.288L41.7262 128.7ZM45.7527 126.691L46.2669 126.866C46.5917 126.97 46.8745 126.971 47.1155 126.869C47.3565 126.766 47.5247 126.575 47.6201 126.293C47.8342 125.662 47.6269 125.24 46.998 125.026C46.7021 124.926 46.4365 124.931 46.2012 125.041C45.9692 125.149 45.806 125.343 45.7114 125.621L45.0271 125.389C45.1718 124.962 45.4472 124.661 45.8533 124.486C46.2627 124.308 46.7078 124.301 47.1887 124.464C47.6968 124.636 48.0495 124.906 48.2468 125.273C48.4442 125.639 48.4617 126.062 48.2994 126.54C48.22 126.775 48.0666 126.976 47.8392 127.143C47.6143 127.312 47.3528 127.406 47.0545 127.426C47.3187 127.62 47.4941 127.852 47.5808 128.124C47.67 128.396 47.6614 128.689 47.5552 129.002C47.3912 129.485 47.1033 129.815 46.6914 129.992C46.2796 130.168 45.8208 130.171 45.3153 129.999C44.8097 129.828 44.4443 129.551 44.219 129.17C43.9962 128.789 43.9609 128.374 44.1132 127.925L44.8012 128.159C44.705 128.442 44.7206 128.7 44.8478 128.933C44.975 129.166 45.194 129.335 45.5048 129.441C45.8352 129.553 46.1173 129.552 46.3509 129.439C46.5846 129.326 46.7562 129.108 46.8658 128.785C46.972 128.471 46.9574 128.198 46.8219 127.965C46.6865 127.733 46.4383 127.552 46.0774 127.424L45.5633 127.25L45.7527 126.691Z" fill="black"/>
</g>
</g>
</svg>
